<svg xmlns="http://www.w3.org/2000/svg" version="1.0" width="136" height="129" preserveAspectRatio="xMidYMid meet" style=""><rect id="backgroundrect" width="100%" height="100%" x="0" y="0" fill="none" stroke="none"/>


<g class="currentLayer" style=""><title>Layer 1</title><g transform="translate(0,129) scale(0.10000000149011612,-0.10000000149011612) " fill="#670909" stroke="none" id="svg_1" class="selected" fill-opacity="1">
<path d="M415 936 c-62 -29 -90 -64 -160 -207 -73 -149 -73 -212 4 -283 25 -24 42 -30 91 -34 68 -5 111 9 140 45 l19 25 38 -31 c77 -61 199 -61 262 1 l32 31 35 -34 c31 -30 41 -34 102 -37 57 -3 72 0 101 20 50 33 72 77 72 140 0 44 -9 73 -52 163 -83 170 -147 225 -267 225 -45 0 -105 -21 -134 -46 -15 -15 -19 -14 -45 3 -69 49 -160 56 -238 19z m148 -57 c20 -5 44 -21 53 -34 21 -32 56 -32 97 -1 18 14 53 30 79 37 98 27 175 -31 253 -189 55 -113 57 -142 11 -188 -52 -52 -112 -46 -156 16 l-21 30 42 76 c51 92 51 141 -1 187 -57 51 -162 30 -195 -39 -22 -47 -19 -62 29 -144 l44 -75 -21 -29 c-26 -36 -80 -59 -123 -52 -32 6 -94 59 -94 80 0 6 18 40 40 76 43 70 49 104 25 150 -40 77 -179 80 -213 5 -25 -55 -8 -125 50 -208 l20 -28 -40 -39 c-44 -44 -74 -50 -122 -25 -69 36 -67 93 6 237 49 95 63 114 102 139 49 31 76 35 135 18z m-4 -130 c14 -25 13 -30 -16 -74 l-31 -47 -26 44 c-31 53 -32 65 -9 90 23 26 64 19 82 -13z m312 21 c11 -6 19 -21 19 -36 0 -24 -39 -104 -51 -104 -8 0 -49 89 -49 108 0 37 40 53 81 32z" id="svg_2" fill="#670909" fill-opacity="1"/>
</g></g></svg>